<svg width="180" height="36" viewBox="0 0 180 36" fill="none" xmlns="http://www.w3.org/2000/svg">
<path d="M18.9591 35.0228C18.6892 35.0228 18.4192 34.9107 18.2134 34.6865L3.95293 19.1625C-0.0325265 14.824 -0.0325265 7.7647 3.95293 3.42618C5.8835 1.32447 8.45039 0.166992 11.1807 0.166992C13.911 0.166992 16.4779 1.32447 18.4085 3.4261L18.9591 4.02559L19.5097 3.42618C23.4952 -0.912413 29.9798 -0.912413 33.9652 3.42618C37.9507 7.76478 37.9507 14.8241 33.9652 19.1626L19.7048 34.6865C19.4989 34.9107 19.229 35.0228 18.9591 35.0228V35.0228Z" fill="#F52A50"/>
<path d="M16.1468 24.8665C16.1206 24.8665 16.0942 24.8654 16.0677 24.8633C15.6088 24.8259 15.2252 24.4689 15.1198 23.9814L13.1588 14.9087L11.522 20.2543C11.3784 20.7232 10.9753 21.0394 10.5214 21.0394H2.01358C1.43111 21.0394 0.958893 20.5253 0.958893 19.8912C0.958893 19.2571 1.43111 18.7431 2.01358 18.7431H9.76117L12.3333 10.3431C12.4824 9.85593 12.9102 9.53522 13.3816 9.55918C13.8528 9.58245 14.2525 9.94342 14.3605 10.4432L16.4078 19.9153L19.3858 11.8106C19.5518 11.3587 19.9619 11.0699 20.4083 11.0898C20.855 11.1098 21.2417 11.4342 21.3731 11.8993L23.261 18.5783L24.9989 13.3754C25.1573 12.9012 25.5799 12.5945 26.0448 12.6212C26.5079 12.6474 26.9009 12.9997 27.0133 13.4893L28.2199 18.7431H35.9042C36.4867 18.7431 36.9589 19.2571 36.9589 19.8912C36.9589 20.5253 36.4867 21.0394 35.9042 21.0394H27.3964C26.9124 21.0394 26.4906 20.6808 26.3732 20.1697L25.8031 17.6873L24.1688 22.5799C24.0139 23.0436 23.6042 23.3481 23.1511 23.3353C22.698 23.3229 22.3029 22.9967 22.1696 22.5251L20.2353 15.6818L17.1256 24.1448C16.9646 24.583 16.5752 24.8665 16.1468 24.8665V24.8665Z" fill="white"/>
<path d="M66.248 22.5949V9.2077H63.0009L59.1972 18.819H59.123L55.3192 9.2077H52.0722V22.5949H54.5678V13.5588H54.642L58.2787 22.5949H60.0414L63.6781 13.5588H63.7524V22.5949H66.248ZM75.5895 19.5519C75.339 20.3127 74.5783 20.8044 73.5856 20.8044C72.2033 20.8044 71.3034 19.8303 71.3034 18.4108V18.2438H78.1593V17.4181C78.1593 14.3937 76.3317 12.4362 73.4372 12.4362C70.4962 12.4362 68.6408 14.4958 68.6408 17.6686C68.6408 20.8508 70.4777 22.8083 73.5392 22.8083C75.9977 22.8083 77.779 21.5002 78.0758 19.5519H75.5895ZM73.465 14.4401C74.671 14.4401 75.4967 15.3122 75.5524 16.5832H71.3312C71.424 15.34 72.2775 14.4401 73.465 14.4401ZM84.0126 22.7526C85.4784 22.7526 86.6288 21.9826 87.1112 20.8879H87.1576V22.5949H89.8295V9.2077H87.1205V14.3566H87.0648C86.5824 13.2526 85.4691 12.4919 84.0311 12.4919C81.5355 12.4919 79.9584 14.4494 79.9584 17.6037C79.9584 20.7858 81.5263 22.7526 84.0126 22.7526ZM84.931 14.6628C86.2763 14.6628 87.1391 15.8132 87.1391 17.6222C87.1391 19.4406 86.2763 20.5724 84.931 20.5724C83.5673 20.5724 82.7323 19.4499 82.7323 17.6222C82.7323 15.8039 83.5673 14.6628 84.931 14.6628ZM109.727 15.572C109.727 17.0656 110.701 18.0305 112.622 18.4387L114.319 18.7912C115.294 19.0138 115.637 19.3107 115.637 19.8395C115.637 20.4889 115.006 20.9064 113.985 20.9064C112.909 20.9064 112.288 20.4426 112.121 19.5705H109.477C109.653 21.528 111.239 22.8083 113.985 22.8083C116.546 22.8083 118.336 21.5187 118.336 19.5612C118.336 18.1047 117.483 17.2883 115.405 16.8522L113.707 16.4904C112.705 16.277 112.334 15.9338 112.334 15.4235C112.334 14.7648 112.956 14.3381 113.893 14.3381C114.895 14.3381 115.498 14.8854 115.581 15.6926H118.077C118.021 13.7443 116.444 12.4362 113.893 12.4362C111.36 12.4362 109.727 13.6794 109.727 15.572ZM126.24 12.4919C124.802 12.4919 123.698 13.2155 123.16 14.3845H123.104V12.6496H120.432V25.842H123.141V20.925H123.197C123.726 22.0475 124.839 22.7526 126.286 22.7526C128.773 22.7526 130.313 20.8229 130.313 17.6222C130.313 14.4123 128.763 12.4919 126.24 12.4919ZM125.331 20.5724C124.004 20.5724 123.132 19.422 123.132 17.6222C123.132 15.841 124.004 14.6628 125.331 14.6628C126.685 14.6628 127.539 15.8224 127.539 17.6222C127.539 19.4313 126.685 20.5724 125.331 20.5724ZM139.061 19.5519C138.81 20.3127 138.049 20.8044 137.057 20.8044C135.674 20.8044 134.774 19.8303 134.774 18.4108V18.2438H141.63V17.4181C141.63 14.3937 139.803 12.4362 136.908 12.4362C133.967 12.4362 132.112 14.4958 132.112 17.6686C132.112 20.8508 133.949 22.8083 137.01 22.8083C139.469 22.8083 141.25 21.5002 141.547 19.5519H139.061ZM136.936 14.4401C138.142 14.4401 138.968 15.3122 139.023 16.5832H134.802C134.895 15.34 135.749 14.4401 136.936 14.4401ZM152.828 16.3513C152.707 14.0969 151 12.4362 148.309 12.4362C145.331 12.4362 143.429 14.4216 143.429 17.613C143.429 20.86 145.331 22.8083 148.328 22.8083C150.944 22.8083 152.698 21.2961 152.837 18.9489H150.313C150.146 20.0344 149.441 20.6838 148.356 20.6838C147.011 20.6838 146.176 19.5705 146.176 17.613C146.176 15.6926 147.011 14.5607 148.346 14.5607C149.46 14.5607 150.156 15.3029 150.313 16.3513H152.828ZM155.629 10.3581V12.6496H154.228V14.6906H155.629V19.9137C155.629 21.8527 156.538 22.632 158.876 22.632C159.423 22.632 159.887 22.5856 160.165 22.5207V20.5261C159.998 20.5539 159.748 20.5724 159.507 20.5724C158.709 20.5724 158.338 20.2106 158.338 19.4499V14.6906H160.174V12.6496H158.338V10.3581H155.629ZM166.835 22.8083C169.841 22.8083 171.761 20.8879 171.761 17.613C171.761 14.3845 169.813 12.4362 166.835 12.4362C163.857 12.4362 161.909 14.3937 161.909 17.613C161.909 20.8786 163.829 22.8083 166.835 22.8083ZM166.835 20.7394C165.499 20.7394 164.655 19.6169 164.655 17.6222C164.655 15.6462 165.517 14.5051 166.835 14.5051C168.152 14.5051 169.006 15.6462 169.006 17.6222C169.006 19.6169 168.162 20.7394 166.835 20.7394ZM173.922 22.5949H176.631V17.0378C176.631 15.6369 177.41 14.8205 178.746 14.8205C179.136 14.8205 179.507 14.8854 179.73 14.9782V12.5939C179.544 12.5383 179.275 12.4919 178.96 12.4919C177.791 12.4919 176.946 13.1784 176.594 14.4401H176.538V12.6496H173.922V22.5949Z" fill="white"/>
<path d="M95.4323 22.5949V9.2077H92.6305V22.5949H95.4323ZM98.1869 22.5949H100.896V16.8893C100.896 15.5998 101.666 14.7092 102.881 14.7092C104.097 14.7092 104.709 15.4514 104.709 16.7502V22.5949H107.418V16.1843C107.418 13.8556 106.175 12.464 103.967 12.464C102.436 12.464 101.388 13.1877 100.859 14.4216H100.803V12.6496H98.1869V22.5949Z" fill="#F52A50"/>
</svg>
