<svg width="128" height="129" viewBox="0 0 128 129" fill="none" xmlns="http://www.w3.org/2000/svg">
<path d="M115.573 97.4066L87.3064 69.1399H82.0264L68.4797 82.6866V87.9666L96.7464 116.233C98.8264 118.313 102.186 118.313 104.266 116.233L115.573 104.927C117.653 102.9 117.653 99.4866 115.573 97.4066Z" fill="#F52A50"/>
<path d="M92.4805 54.8466L100 47.3266L111.307 58.6332C117.547 52.3932 117.547 42.2599 111.307 36.0199L92.4271 17.1399L84.9071 24.6599V9.61992L81.1738 5.83325L62.2938 24.7133L66.0805 28.4999H81.1738L73.6538 36.0199L79.3071 41.6732L63.8938 57.0866L41.8671 35.0599V27.4866L25.7604 11.3799L10.6671 26.4732L26.8271 42.6333H34.3471L56.3738 64.6599L51.8405 69.1932H40.5338L12.2671 97.4599C10.1871 99.5399 10.1871 102.9 12.2671 104.98L23.5738 116.287C25.6538 118.367 29.0138 118.367 31.0938 116.287L59.3605 88.0199V76.7132L86.8271 49.2466L92.4805 54.8466Z" fill="#F52A50"/>
</svg>
