<svg width="179" height="35" viewBox="0 0 179 35" fill="none" xmlns="http://www.w3.org/2000/svg">
<path d="M18.0002 34.8558C17.7303 34.8558 17.4603 34.7437 17.2545 34.5195L2.99403 18.9955C-0.991419 14.657 -0.991419 7.59771 2.99403 3.25919C4.9246 1.15748 7.4915 0 10.2218 0C12.9521 0 15.519 1.15748 17.4496 3.25911L18.0002 3.8586L18.5508 3.25919C22.5363 -1.07941 29.0209 -1.07941 33.0064 3.25919C36.9918 7.59778 36.9918 14.6571 33.0064 18.9956L18.7459 34.5195C18.5401 34.7437 18.2701 34.8558 18.0002 34.8558V34.8558Z" fill="#F52A50"/>
<path d="M15.1879 24.6995C15.1617 24.6995 15.1353 24.6984 15.1088 24.6963C14.6499 24.6589 14.2663 24.3019 14.1609 23.8144L12.1999 14.7418L10.5631 20.0873C10.4195 20.5562 10.0164 20.8724 9.5625 20.8724H1.05469C0.472219 20.8724 0 20.3583 0 19.7242C0 19.0901 0.472219 18.5761 1.05469 18.5761H8.80228L11.3744 10.1761C11.5235 9.68894 11.9513 9.36823 12.4227 9.39219C12.8939 9.41546 13.2936 9.77643 13.4016 10.2762L15.4489 19.7483L18.4269 11.6436C18.5929 11.1917 19.003 10.9029 19.4494 10.9228C19.8961 10.9428 20.2828 11.2672 20.4142 11.7323L22.3021 18.4113L24.0401 13.2085C24.1984 12.7342 24.621 12.4275 25.086 12.4542C25.549 12.4804 25.942 12.8327 26.0544 13.3223L27.261 18.5761H34.9453C35.5278 18.5761 36 19.0901 36 19.7242C36 20.3583 35.5278 20.8724 34.9453 20.8724H26.4375C25.9535 20.8724 25.5317 20.5138 25.4143 20.0027L24.8442 17.5203L23.2099 22.4129C23.055 22.8766 22.6453 23.1811 22.1922 23.1683C21.7391 23.1559 21.344 22.8297 21.2107 22.3581L19.2764 15.5148L16.1667 23.9778C16.0057 24.416 15.6163 24.6995 15.1879 24.6995V24.6995Z" fill="white"/>
<path d="M65.2891 22.4279V9.04071H62.042L58.2383 18.652H58.1641L54.3604 9.04071H51.1133V22.4279H53.6089V13.3918H53.6831L57.3198 22.4279H59.0825L62.7192 13.3918H62.7935V22.4279H65.2891ZM74.6306 19.3849C74.3801 20.1457 73.6194 20.6374 72.6267 20.6374C71.2444 20.6374 70.3445 19.6633 70.3445 18.2438V18.0768H77.2004V17.2512C77.2004 14.2267 75.3728 12.2692 72.4783 12.2692C69.5373 12.2692 67.6819 14.3288 67.6819 17.5016C67.6819 20.6838 69.5188 22.6413 72.5803 22.6413C75.0388 22.6413 76.8201 21.3332 77.1169 19.3849H74.6306ZM72.5061 14.2731C73.7121 14.2731 74.5378 15.1452 74.5935 16.4162H70.3723C70.4651 15.173 71.3186 14.2731 72.5061 14.2731ZM83.0537 22.5856C84.5195 22.5856 85.6699 21.8156 86.1523 20.7209H86.1987V22.4279H88.8706V9.04071H86.1616V14.1896H86.1059C85.6235 13.0856 84.5102 12.3249 83.0722 12.3249C80.5766 12.3249 78.9995 14.2824 78.9995 17.4367C78.9995 20.6188 80.5674 22.5856 83.0537 22.5856ZM83.9721 14.4958C85.3174 14.4958 86.1802 15.6462 86.1802 17.4553C86.1802 19.2736 85.3174 20.4054 83.9721 20.4054C82.6084 20.4054 81.7734 19.2829 81.7734 17.4553C81.7734 15.6369 82.6084 14.4958 83.9721 14.4958ZM108.768 15.405C108.768 16.8986 109.742 17.8635 111.663 18.2717L113.361 18.6242C114.335 18.8468 114.678 19.1437 114.678 19.6725C114.678 20.3219 114.047 20.7394 113.027 20.7394C111.95 20.7394 111.329 20.2756 111.162 19.4035H108.518C108.694 21.361 110.28 22.6413 113.027 22.6413C115.587 22.6413 117.378 21.3517 117.378 19.3942C117.378 17.9377 116.524 17.1213 114.446 16.6852L112.748 16.3234C111.746 16.11 111.375 15.7668 111.375 15.2565C111.375 14.5978 111.997 14.1711 112.934 14.1711C113.936 14.1711 114.539 14.7184 114.622 15.5256H117.118C117.062 13.5773 115.485 12.2692 112.934 12.2692C110.401 12.2692 108.768 13.5124 108.768 15.405ZM125.281 12.3249C123.843 12.3249 122.739 13.0485 122.201 14.2175H122.145V12.4826H119.474V25.675H122.183V20.758H122.238C122.767 21.8805 123.88 22.5856 125.328 22.5856C127.814 22.5856 129.354 20.6559 129.354 17.4553C129.354 14.2453 127.805 12.3249 125.281 12.3249ZM124.372 20.4054C123.045 20.4054 122.173 19.255 122.173 17.4553C122.173 15.674 123.045 14.4958 124.372 14.4958C125.727 14.4958 126.58 15.6555 126.58 17.4553C126.58 19.2643 125.727 20.4054 124.372 20.4054ZM138.102 19.3849C137.851 20.1457 137.091 20.6374 136.098 20.6374C134.716 20.6374 133.816 19.6633 133.816 18.2438V18.0768H140.672V17.2512C140.672 14.2267 138.844 12.2692 135.949 12.2692C133.009 12.2692 131.153 14.3288 131.153 17.5016C131.153 20.6838 132.99 22.6413 136.051 22.6413C138.51 22.6413 140.291 21.3332 140.588 19.3849H138.102ZM135.977 14.2731C137.183 14.2731 138.009 15.1452 138.065 16.4162H133.843C133.936 15.173 134.79 14.2731 135.977 14.2731ZM151.869 16.1843C151.748 13.9299 150.041 12.2692 147.351 12.2692C144.373 12.2692 142.471 14.2546 142.471 17.446C142.471 20.693 144.373 22.6413 147.369 22.6413C149.985 22.6413 151.739 21.1291 151.878 18.7819H149.354C149.187 19.8674 148.482 20.5168 147.397 20.5168C146.052 20.5168 145.217 19.4035 145.217 17.446C145.217 15.5256 146.052 14.3937 147.388 14.3937C148.501 14.3937 149.197 15.1359 149.354 16.1843H151.869ZM154.67 10.1911V12.4826H153.269V14.5236H154.67V19.7467C154.67 21.6857 155.579 22.465 157.917 22.465C158.464 22.465 158.928 22.4186 159.206 22.3537V20.3591C159.039 20.3869 158.789 20.4054 158.548 20.4054C157.75 20.4054 157.379 20.0436 157.379 19.2829V14.5236H159.215V12.4826H157.379V10.1911H154.67ZM165.876 22.6413C168.882 22.6413 170.802 20.7209 170.802 17.446C170.802 14.2175 168.854 12.2692 165.876 12.2692C162.898 12.2692 160.95 14.2267 160.95 17.446C160.95 20.7116 162.87 22.6413 165.876 22.6413ZM165.876 20.5724C164.54 20.5724 163.696 19.4499 163.696 17.4553C163.696 15.4792 164.558 14.3381 165.876 14.3381C167.193 14.3381 168.047 15.4792 168.047 17.4553C168.047 19.4499 167.203 20.5724 165.876 20.5724ZM172.963 22.4279H175.672V16.8708C175.672 15.4699 176.451 14.6535 177.787 14.6535C178.177 14.6535 178.548 14.7184 178.771 14.8112V12.4269C178.585 12.3713 178.316 12.3249 178.001 12.3249C176.832 12.3249 175.987 13.0114 175.635 14.2731H175.579V12.4826H172.963V22.4279Z" fill="#F52A50"/>
<path d="M94.4734 22.4279V9.04071H91.6716V22.4279H94.4734ZM97.228 22.4279H99.937V16.7223C99.937 15.4328 100.707 14.5422 101.922 14.5422C103.138 14.5422 103.75 15.2844 103.75 16.5832V22.4279H106.459V16.0173C106.459 13.6887 105.216 12.2971 103.008 12.2971C101.477 12.2971 100.429 13.0207 99.8999 14.2546H99.8442V12.4826H97.228V22.4279Z" fill="#F52A50"/>
</svg>
