<svg width="70" height="70" viewBox="0 0 70 70" fill="none" xmlns="http://www.w3.org/2000/svg">
<path d="M35.0003 65.9828C34.5205 65.9828 34.0406 65.7836 33.6746 65.3849L8.32273 37.7868C1.23748 30.0739 1.23748 17.524 8.32273 9.81108C11.7548 6.07471 16.3182 4.01697 21.1721 4.01697C26.026 4.01697 30.5893 6.07471 34.0215 9.81095L35.0003 10.8767L35.9792 9.81108C43.0645 2.09802 54.5927 2.09802 61.678 9.81108C68.7632 17.5241 68.7632 30.074 61.678 37.7869L36.3261 65.385C35.9601 65.7836 35.4802 65.9828 35.0003 65.9828Z" fill="#F52A50"/>
<path d="M36.3257 65.385L61.6776 37.7868C68.7629 30.0739 68.7629 17.524 61.6776 9.81092C54.5924 2.09786 43.0641 2.09786 35.9789 9.81092L35 10.8767V65.9829C35.4799 65.9828 35.9597 65.7836 36.3257 65.385Z" fill="#F52A50"/>
<path d="M30.0007 47.9272C29.9541 47.9272 29.9071 47.9252 29.8601 47.9214C29.0443 47.855 28.3622 47.2204 28.1749 46.3536L24.6887 30.2245L21.7789 39.7276C21.5235 40.5612 20.807 41.1234 20 41.1234H4.875C3.8395 41.1234 3 40.2095 3 39.0822C3 37.955 3.8395 37.0411 4.875 37.0411H18.6485L23.2211 22.1077C23.4862 21.2417 24.2467 20.6716 25.0849 20.7141C25.9225 20.7555 26.633 21.3972 26.8251 22.2857L30.4648 39.1251L35.759 24.7167C36.0541 23.9133 36.7831 23.3999 37.5768 23.4353C38.3709 23.4708 39.0583 24.0475 39.292 24.8744L42.6481 36.7481L45.7379 27.4986C46.0194 26.6555 46.7708 26.1102 47.5973 26.1577C48.4204 26.2043 49.1191 26.8306 49.3189 27.7011L51.464 37.0411H65.125C66.1605 37.0411 67 37.955 67 39.0822C67 40.2095 66.1605 41.1234 65.125 41.1234H50C49.1396 41.1234 48.3896 40.4858 48.181 39.5773L47.1675 35.1642L44.2621 43.862C43.9867 44.6865 43.2582 45.2278 42.4529 45.205C41.6474 45.1829 40.9449 44.6031 40.7079 43.7647L37.2691 31.5987L31.7407 46.6441C31.4546 47.4231 30.7622 47.9272 30.0007 47.9272Z" fill="white"/>
<path d="M65.125 37.0412H51.464L49.319 27.7012C49.1191 26.8307 48.4205 26.2043 47.5974 26.1578C46.7709 26.1103 46.0195 26.6556 45.738 27.4987L42.6483 36.7482L39.2921 24.8745C39.0584 24.0474 38.371 23.4708 37.5769 23.4353C36.7832 23.3999 36.0542 23.9132 35.7591 24.7167L35 26.7826V37.7743L37.2691 31.5988L40.7079 43.7648C40.9449 44.6032 41.6474 45.183 42.4529 45.205C43.2581 45.2279 43.9867 44.6864 44.2621 43.8621L47.1675 35.1643L48.181 39.5773C48.3896 40.4859 49.1396 41.1234 50 41.1234H65.125C66.1605 41.1234 67 40.2095 67 39.0823C67 37.955 66.1605 37.0412 65.125 37.0412Z" fill="white"/>
</svg>
