<svg width="128" height="129" viewBox="0 0 128 129" fill="none" xmlns="http://www.w3.org/2000/svg">
<path d="M102.934 90.6334C105.067 86.9001 106.667 82.6334 106.667 77.8334C106.667 64.5001 96.0005 53.8334 82.6671 53.8334C69.3338 53.8334 58.6671 64.5001 58.6671 77.8334C58.6671 91.1667 69.3338 101.833 82.6671 101.833C87.4671 101.833 91.7338 100.233 95.4671 98.1001L112.534 115.167L120 107.7L102.934 90.6334ZM82.6671 91.1667C75.2004 91.1667 69.3338 85.3001 69.3338 77.8334C69.3338 70.3667 75.2004 64.5001 82.6671 64.5001C90.1338 64.5001 96.0005 70.3667 96.0005 77.8334C96.0005 85.3001 90.1338 91.1667 82.6671 91.1667ZM64.0005 107.167V117.833C34.5604 117.833 10.6671 93.9401 10.6671 64.5001C10.6671 35.0601 34.5604 11.1667 64.0005 11.1667C89.8138 11.1667 111.307 29.5134 116.267 53.8334H105.227C101.814 40.7134 92.4271 29.9934 80.0005 24.9801V27.1667C80.0005 33.0334 75.2004 37.8334 69.3338 37.8334H58.6671V48.5001C58.6671 51.4334 56.2671 53.8334 53.3338 53.8334H42.6671V64.5001H53.3338V80.5001H48.0005L22.4538 54.9534C21.7604 58.0467 21.3338 61.1934 21.3338 64.5001C21.3338 88.0201 40.4804 107.167 64.0005 107.167Z" fill="#F52A50"/>
</svg>
