<svg width="128" height="129" viewBox="0 0 128 129" fill="none" xmlns="http://www.w3.org/2000/svg">
<g clip-path="url(#clip0_329:436)">
<path d="M106.666 64.5C106.666 50.9533 100.32 38.8467 90.4529 31.06L85.3329 0.5H42.6662L37.5996 31.06C27.6796 38.8467 21.3329 50.9 21.3329 64.5C21.3329 78.1 27.6796 90.1533 37.5996 97.94L42.6662 128.5H85.3329L90.4529 97.94C100.32 90.1533 106.666 78.0467 106.666 64.5ZM31.9996 64.5C31.9996 46.8467 46.3462 32.5 63.9995 32.5C81.6529 32.5 95.9995 46.8467 95.9995 64.5C95.9995 82.1533 81.6529 96.5 63.9995 96.5C46.3462 96.5 31.9996 82.1533 31.9996 64.5Z" fill="#F52A50"/>
</g>
<defs>
<clipPath id="clip0_329:436">
<rect width="128" height="128" fill="white" transform="translate(0 0.5)"/>
</clipPath>
</defs>
</svg>
